<svg width="678" height="255" viewBox="0 0 678 255" fill="none" xmlns="http://www.w3.org/2000/svg">
<path d="M210.79 193.91H264.35C270.21 193.91 275.06 198.76 275.06 204.62C275.06 210.48 270.21 215.33 264.35 215.33H200.08C194.22 215.33 189.37 210.48 189.37 204.62V118.93C189.37 113.07 194.22 108.22 200.08 108.22H264.35C270.21 108.22 275.06 113.07 275.06 118.93C275.06 124.79 270.21 129.64 264.35 129.64H210.79V151.06H253.63C259.49 151.06 264.34 155.91 264.34 161.77C264.34 167.63 259.49 172.48 253.63 172.48H210.79V193.91V193.91Z" fill="#333333"/>
<path d="M335.62 174.66L305.66 144.7V204.62C305.66 210.48 300.81 215.33 294.95 215.33C289.09 215.33 284.24 210.48 284.24 204.62V118.93C284.24 113.07 289.09 108.22 294.95 108.22C297.8 108.22 300.47 109.39 302.48 111.4L343.15 152.07L383.82 111.4C385.83 109.39 388.51 108.22 391.35 108.22C397.21 108.22 402.06 113.07 402.06 118.93V204.62C402.06 210.48 397.21 215.33 391.35 215.33C385.49 215.33 380.64 210.48 380.64 204.62V144.7L350.68 174.66C348.67 176.84 345.83 177.84 343.15 177.84C340.47 177.85 337.63 176.84 335.62 174.66Z" fill="#333333"/>
<path d="M597.66 189.56L624.44 162.78V118.93C624.44 113.07 629.29 108.22 635.15 108.22C641.01 108.22 645.86 113.07 645.86 118.93V167.13C645.86 169.98 644.69 172.65 642.68 174.66L605.19 212.15C603.01 214.33 600.34 215.33 597.66 215.33C594.82 215.33 592.3 214.33 590.13 212.15L552.64 174.66C550.63 172.65 549.46 169.97 549.46 167.13V118.93C549.46 113.07 554.31 108.22 560.17 108.22C566.03 108.22 570.88 113.07 570.88 118.93V162.78L597.66 189.56Z" fill="#333333"/>
<path d="M656.16 207.69V115.82C656.16 111.69 661.5 107.78 667.49 107.78C673.27 107.78 677.98 111.14 677.98 115.27V207.62C677.98 211.9 673.27 215.27 667.49 215.27C661.5 215.26 656.16 211.97 656.16 207.69Z" fill="#FF9000"/>
<path d="M448.76 129.64H421.98C416.12 129.64 411.27 124.79 411.27 118.93C411.27 113.07 416.12 108.22 421.98 108.22H496.96C502.82 108.22 507.67 113.07 507.67 118.93C507.67 124.79 502.82 129.64 496.96 129.64H470.18V204.62C470.18 210.48 465.33 215.33 459.47 215.33C453.61 215.33 448.76 210.48 448.76 204.62V129.64V129.64Z" fill="#333333"/>
<path d="M131.13 126.6C128.37 128.35 126 129.18 123.78 129.65H142.5C148.36 129.65 153.21 134.5 153.21 140.36C153.21 146.22 148.36 151.07 142.5 151.07H105.01V129.65H114.14C111.4 129.17 108.58 128.9 105.69 128.9C97.9501 128.9 90.6401 130.73 84.1501 133.95C83.9601 134.04 83.7801 134.15 83.5901 134.25V204.63C83.5901 210.49 88.4401 215.34 94.3001 215.34H147.86C165.6 215.34 179.99 200.95 179.99 183.21C179.99 173.5 175.64 164.63 168.78 158.78C172.46 153.59 174.64 147.23 174.64 140.37C174.64 124.7 163.41 111.66 148.57 108.82C141.03 118.6 135.57 123.78 131.13 126.6ZM158.57 183.2C158.57 189.06 153.72 193.91 147.86 193.91H105.02V172.49H147.86C153.71 172.49 158.57 177.34 158.57 183.2Z" fill="#333333"/>
<path d="M517.2 207.69V115.82C517.2 111.69 522.54 107.78 528.53 107.78C534.31 107.78 539.02 111.14 539.02 115.27V207.62C539.02 211.9 534.31 215.27 528.53 215.27C522.54 215.26 517.2 211.97 517.2 207.69Z" fill="#FF9000"/>
<path d="M174.34 20.18C183.62 18.34 191.83 15.37 191.83 15.37C189.92 10.87 173.24 12.26 173.24 12.26C167.01 3.03 161.57 2.14 161.57 2.14C136.8 -3.23 131.39 4.11999 124.79 10.72C118.18 17.32 107.88 40.94 107.88 40.94C90.17 61.37 82.11 77.34 79.01 80.16C75.92 82.97 59.62 109.63 57.38 115.99C55.14 122.35 52.31 131 52.31 131C37.18 148.87 41.23 150.33 41.23 150.33C39.73 154.02 22.56 179.7 22.56 179.7C1.35 206.67 0 216.77 0 216.77C7.03 213.24 6.62999 210.33 6.62999 210.33C10.99 207.34 13.52 204.42 13.52 204.42C9.15999 215.3 12.6 215 12.6 215C18.28 214.95 33.7 184.56 41.11 174.55C48.53 164.53 68 140.93 68 140.93L68.81 140.53C72.45 134.66 79.08 129.08 87.57 125.39C97.34 121.15 107.27 120.42 114.37 122.78H114.8C117.23 123.21 120.01 123.17 122.88 122.54C126.43 121.76 129.48 120.22 131.67 118.3C132.02 118.04 132.37 117.76 132.72 117.46C136.73 114.06 141.44 108.18 147.55 97.44C148.1 96.48 148.65 95.49 149.23 94.45C166.66 62.69 160.27 47.06 160.86 40.74C161.46 34.44 174.34 20.18 174.34 20.18Z" fill="#FF9000"/>
<path d="M319.85 237.06C321.17 238.18 321.83 239.77 321.83 241.84C321.83 243.97 321.17 245.63 319.85 246.8C318.53 247.97 316.67 248.55 314.25 248.55H308.99V254.84H307.07V235.38H314.25C316.67 235.38 318.53 235.94 319.85 237.06ZM318.47 245.55C319.48 244.71 319.99 243.49 319.99 241.89C319.99 240.33 319.49 239.14 318.49 238.33C317.49 237.52 316.05 237.11 314.17 237.11H308.99V246.83H314.17C316.03 246.82 317.46 246.4 318.47 245.55Z" fill="#333333"/>
<path d="M340.98 235.38H342.9V253.11H351.48V254.84H340.98V235.38Z" fill="#333333"/>
<path d="M385.11 254.84L382.8 249.66H372L369.72 254.84H367.66L376.43 235.38H378.43L387.2 254.84H385.11ZM372.75 247.93H382.05L377.37 237.41L372.75 247.93Z" fill="#333333"/>
<path d="M419.8 235.38L412.31 247.91V254.84H410.39V247.91L402.79 235.38H404.79L411.36 245.85L417.79 235.38H419.8Z" fill="#333333"/>
<path d="M433.68 235V255L455.68 245L433.68 235Z" fill="#333333"/>
</svg>
